<svg width="21" height="20" viewBox="0 0 21 20" fill="none" xmlns="http://www.w3.org/2000/svg">
<path d="M10.5051 10.9923C11.1159 10.9923 11.7128 10.8162 12.2206 10.4863C12.7284 10.1563 13.1242 9.68741 13.3579 9.13877C13.5916 8.59013 13.6527 7.98642 13.5336 7.40398C13.4145 6.82155 13.1204 6.28654 12.6885 5.86663C12.2567 5.44672 11.7065 5.16075 11.1075 5.0449C10.5086 4.92904 9.88772 4.98851 9.3235 5.21576C8.75929 5.44302 8.27704 5.82786 7.93775 6.32162C7.59846 6.81539 7.41737 7.3959 7.41737 7.98975C7.41737 8.78607 7.74268 9.54978 8.32175 10.1129C8.90083 10.676 9.68622 10.9923 10.5051 10.9923ZM10.5051 6.9889C10.7087 6.9889 10.9077 7.0476 11.077 7.15757C11.2462 7.26755 11.3782 7.42386 11.4561 7.60674C11.534 7.78962 11.5543 7.99086 11.5146 8.185C11.4749 8.37915 11.3769 8.55748 11.2329 8.69745C11.089 8.83742 10.9056 8.93275 10.7059 8.97136C10.5063 9.00998 10.2993 8.99016 10.1113 8.91441C9.92319 8.83866 9.76244 8.71038 9.64935 8.54579C9.53625 8.3812 9.47589 8.1877 9.47589 7.98975C9.47589 7.72431 9.58433 7.46974 9.77735 7.28204C9.97037 7.09435 10.2322 6.9889 10.5051 6.9889ZM20.3758 16.1567C19.8732 14.5358 18.956 13.0654 17.71 11.883C18.4035 10.6641 18.7581 9.29024 18.7385 7.89726C18.7189 6.50429 18.3258 5.14039 17.5982 3.94032C16.8706 2.74026 15.8336 1.74557 14.5896 1.05452C13.3457 0.363479 11.9378 0 10.5051 0C9.07249 0 7.66463 0.363479 6.42066 1.05452C5.17669 1.74557 4.13967 2.74026 3.41206 3.94032C2.68445 5.14039 2.29143 6.50429 2.27183 7.89726C2.25224 9.29024 2.60674 10.6641 3.30032 11.883C2.047 13.0615 1.1256 14.533 0.624247 16.1567C0.490268 16.6019 0.464223 17.0713 0.548156 17.528C0.632088 17.9847 0.823715 18.4163 1.108 18.7889C1.39764 19.1677 1.77506 19.4748 2.20963 19.6852C2.64419 19.8956 3.12366 20.0035 3.6091 19.9999H17.4012C17.8849 20.0019 18.3623 19.8933 18.795 19.683C19.2276 19.4726 19.6034 19.1664 19.892 18.7889C20.1763 18.4163 20.3679 17.9847 20.4518 17.528C20.5358 17.0713 20.5097 16.6019 20.3758 16.1567ZM10.5051 1.98466C11.7266 1.98466 12.9205 2.33686 13.9361 2.9967C14.9517 3.65655 15.7432 4.59442 16.2106 5.6917C16.678 6.78899 16.8003 7.99641 16.562 9.16128C16.3238 10.3262 15.7356 11.3962 14.8719 12.236C14.0083 13.0758 12.9079 13.6477 11.7099 13.8794C10.512 14.1112 9.2703 13.9922 8.14186 13.5377C7.01342 13.0832 6.04893 12.3135 5.37035 11.326C4.69177 10.3385 4.32958 9.17744 4.32958 7.98975C4.32958 6.3971 4.98022 4.86968 6.13836 3.74351C7.29651 2.61734 8.86729 1.98466 10.5051 1.98466ZM18.2452 17.5879C18.1483 17.7168 18.0212 17.8213 17.8744 17.8926C17.7276 17.964 17.5653 18.0002 17.4012 17.9982H3.6091C3.44497 18.0002 3.28272 17.964 3.1359 17.8926C2.98908 17.8213 2.86194 17.7168 2.76511 17.5879C2.67256 17.4639 2.61051 17.3209 2.58375 17.17C2.55698 17.019 2.56621 16.8641 2.61072 16.7171C2.98019 15.5074 3.64391 14.4019 4.54573 13.4944C5.31469 14.2786 6.23935 14.9029 7.26371 15.3295C8.28807 15.7561 9.39081 15.976 10.5051 15.976C11.6195 15.976 12.7222 15.7561 13.7466 15.3295C14.7709 14.9029 15.6956 14.2786 16.4646 13.4944C17.3664 14.4019 18.0301 15.5074 18.3996 16.7171C18.4441 16.8641 18.4533 17.019 18.4265 17.17C18.3998 17.3209 18.3377 17.4639 18.2452 17.5879Z" fill="white"/>
</svg>
