<svg width="120" height="120" viewBox="0 0 120 120" fill="none" xmlns="http://www.w3.org/2000/svg">
<circle cx="60" cy="60" r="58.5" stroke="white" stroke-width="3"/>
<g filter="url(#filter0_d)">
<circle cx="60" cy="60" r="52" fill="white"/>
</g>
<path d="M46.8579 83.5723C51.1924 82.5812 53.9328 79.7994 56.709 76.8438C56.3328 76.7395 56.0463 76.6525 55.7597 76.583C51.9446 75.6441 48.4341 74.0446 45.2101 71.8713C43.222 70.5326 41.5921 68.8461 40.3562 66.7945C40.195 66.5337 40.0697 66.2555 39.9443 65.9774C39.9085 65.9078 39.9085 65.8209 39.8726 65.5775C41.0906 65.9426 42.2369 66.2903 43.3653 66.638C43.4011 66.6033 43.419 66.5859 43.4548 66.5511C43.3295 66.4468 43.222 66.3425 43.0966 66.2555C41.6279 65.3341 40.195 64.3778 38.7084 63.5085C37.0069 62.5001 35.2158 61.6308 33.568 60.5876C31.3649 59.1793 29.8067 57.1973 28.6783 54.9023C28.6245 54.798 28.6066 54.6937 28.5887 54.5894C28.5708 54.5372 28.5887 54.4677 28.5887 54.3112C30.4156 55.0762 32.1172 56.1541 34.2307 55.9629C30.0753 53.6505 27.4962 50.4167 27.6753 45.5485C29.4485 47.4436 31.1858 49.3213 32.9232 51.199C32.959 51.1643 33.0127 51.1121 33.0486 51.0773C32.3321 49.7212 31.4903 48.3998 30.953 46.9742C30.4156 45.5485 30.0574 44.0011 29.8783 42.4885C29.6992 40.9759 29.8425 39.4285 29.8425 37.8985C29.932 37.8812 30.0216 37.8812 30.0932 37.8638C30.9351 39.7067 31.7769 41.5497 32.6187 43.41C32.7082 43.41 32.7978 43.3926 32.8874 43.3926C32.8515 40.0371 33.2277 36.751 34.8217 33.7432C34.8934 33.7432 34.965 33.7432 35.0367 33.7606C35.0367 34.5082 35.0725 35.2384 35.0367 35.9861C34.8397 39.6546 36.2904 42.7841 38.4577 45.6354C39.9085 47.5305 41.6996 49.1127 43.6339 50.5384C46.1773 52.4161 49.0251 53.7896 51.873 55.1457C54.5238 56.3975 56.8522 58.1014 59.0374 60.0139C60.3628 61.1788 61.7419 62.2741 63.1032 63.4042C63.4793 63.7171 63.8554 64.0649 64.2853 64.4474C64.9838 62.8826 65.6286 61.4222 66.2734 59.9443C67.8317 56.4323 70.178 53.4766 73.0796 50.9209C75.3901 48.8867 77.7364 46.922 80.047 44.9052C83.1814 42.1582 85.1337 38.7505 85.7606 34.6821C85.9934 33.239 85.8859 31.7264 85.9397 30.266C85.9397 30.0226 85.9397 29.7618 86.0292 29.501C87.1576 32.0046 87.48 34.6473 87.7487 37.3943C88.8592 35.2037 89.9517 33.013 91.0622 30.8049C91.1518 30.8223 91.2413 30.8397 91.313 30.8571C91.1876 33.0999 91.1697 35.3428 90.901 37.5682C90.6323 39.7763 90.1129 41.9495 89.701 44.0533C90.2562 43.2187 90.901 42.2625 91.6533 41.1672C91.707 43.3057 91.6354 45.2355 90.704 47.0611C89.7905 48.8693 88.3218 50.2254 86.7277 51.5641C87.6054 51.738 88.3039 51.4424 88.9845 51.1121C89.6472 50.7991 90.2562 50.4167 91.0264 49.982C90.9547 50.3123 90.9189 50.5384 90.8473 50.747C89.8801 53.2854 88.3756 55.4761 86.1188 57.093C84.7396 58.1014 83.2709 58.9881 81.9097 59.9965C81.05 60.6398 80.441 61.0397 80.4052 61.9264C80.9783 61.7351 81.5336 61.5612 82.1963 61.3526C81.0858 65.0385 78.1484 67.2987 75.5871 69.9414C75.8379 70.0457 76.0349 70.1153 76.2319 70.2022C77.5036 70.7064 78.5783 71.4714 79.3126 72.6189C79.8678 73.4708 79.9932 74.3749 79.7604 75.3659C79.6887 75.6615 79.8678 76.0614 80.0649 76.3222C80.6738 77.2263 80.7634 78.1477 80.2261 79.0866C79.7066 80.0081 78.8469 80.4601 77.7185 80.5297C78.6141 78.9649 78.5783 78.6172 77.3603 77.7826C77.2349 78.4259 77.1096 79.0344 76.9842 79.6777C76.1782 79.0344 75.4797 78.2694 74.602 77.8174C73.7065 77.3654 72.6497 77.2437 71.5751 76.9481C71.6288 77.1741 71.6288 77.3132 71.6825 77.4349C72.4706 79.3648 73.205 81.3294 74.1005 83.2245C74.4229 83.92 75.0677 84.5111 75.6588 85.0327C76.214 85.5195 76.6081 85.3457 76.823 84.6328C76.9663 84.1286 77.02 83.607 77.1096 83.1028C77.1991 82.6508 77.4499 82.4595 77.7723 82.5986C77.8439 83.0159 77.9335 83.3462 77.9514 83.6766C77.9693 84.0243 77.9693 84.3894 77.8976 84.7198C77.826 85.0153 77.629 85.2935 77.4857 85.5717C77.5215 85.6238 77.5752 85.6586 77.6111 85.7108C78.0947 85.3978 78.5962 85.0849 79.0619 84.7545C79.2947 84.5807 79.4738 84.3546 79.6887 84.1634C80.5306 83.4158 80.9425 83.4679 81.5336 84.459C81.2112 84.4242 80.9246 84.372 80.6201 84.3373C80.5664 85.6238 79.1693 85.6065 78.5962 86.4758C79.2768 86.441 79.8858 86.3888 80.4947 86.3888C81.4261 86.3888 81.8022 86.8061 81.6231 87.7276C81.3545 87.1017 80.9067 87.1886 80.4768 87.3625C79.5634 87.7276 78.632 87.6059 77.7006 87.4842C76.6797 87.3451 75.7662 87.4842 74.8886 88.0753C74.3154 88.4752 73.7244 88.8577 72.9005 88.6838C72.7214 88.649 72.399 89.2228 72.1661 89.501C71.79 89.0142 71.8079 88.5447 72.4348 88.1622C72.8288 87.9188 73.2945 87.7971 73.7244 87.6233C73.993 87.5189 74.2796 87.432 74.5125 87.2581C75.0319 86.8756 75.0319 86.6322 74.5304 86.2497C73.2945 85.2761 72.0587 84.3199 70.8228 83.3462C70.7153 83.2593 70.59 83.1898 70.4825 83.1724C68.8526 83.0333 67.957 81.9901 67.2764 80.7209C67.1331 80.4427 67.0257 80.0602 66.6316 80.3036C66.4167 80.4427 66.1839 80.86 66.2555 81.0686C66.6316 82.4422 67.4555 83.5201 68.7272 84.2155C69.2825 84.1286 69.3899 82.8073 70.178 83.607C70.1064 83.9026 70.0526 84.0765 70.0168 84.2503C70.2317 84.2851 70.4646 84.372 70.6795 84.3546C71.0377 84.3546 71.396 84.2851 71.7542 84.2503C71.7721 84.3199 71.79 84.4068 71.8079 84.4763C71.5572 84.598 71.3064 84.7198 70.9661 84.8936C72.6855 84.9805 72.6855 84.9805 72.7572 85.8672C72.2019 85.3457 71.6646 85.7629 71.1273 85.8325C69.9093 85.9716 69.0675 86.5279 68.6198 87.6928C68.4765 88.0579 68.0824 88.3187 67.7242 88.7186C67.7421 88.7708 67.7958 88.9446 67.8317 89.1359C67.0615 88.8751 66.8824 88.51 67.2585 87.8493C67.5451 87.3451 67.9212 86.8756 68.2615 86.3888C68.566 85.9542 68.566 85.5891 67.9929 85.3457C67.0615 84.9458 66.2734 84.3025 65.1808 84.1982C64.7689 84.1634 64.4107 83.6244 63.9987 83.2767C63.8017 83.5896 63.533 83.9548 63.3181 84.372C62.6912 85.6065 61.6345 86.3541 60.3091 86.7018C56.1358 87.8145 52.1954 87.1886 48.5236 84.9805C47.9147 84.6328 47.4669 84.0938 46.8579 83.5723Z" fill="#20113D"/>
<defs>
<filter id="filter0_d" x="4" y="8" width="112" height="112" filterUnits="userSpaceOnUse" color-interpolation-filters="sRGB">
<feFlood flood-opacity="0" result="BackgroundImageFix"/>
<feColorMatrix in="SourceAlpha" type="matrix" values="0 0 0 0 0 0 0 0 0 0 0 0 0 0 0 0 0 0 127 0"/>
<feOffset dy="4"/>
<feGaussianBlur stdDeviation="2"/>
<feColorMatrix type="matrix" values="0 0 0 0 0 0 0 0 0 0 0 0 0 0 0 0 0 0 0.25 0"/>
<feBlend mode="normal" in2="BackgroundImageFix" result="effect1_dropShadow"/>
<feBlend mode="normal" in="SourceGraphic" in2="effect1_dropShadow" result="shape"/>
</filter>
</defs>
</svg>
