<svg width="120" height="120" viewBox="0 0 120 120" fill="none" xmlns="http://www.w3.org/2000/svg">
<circle cx="60" cy="60" r="58.5" stroke="white" stroke-width="3"/>
<g filter="url(#filter0_d)">
<circle cx="60" cy="60" r="52" fill="white"/>
</g>
<path fill-rule="evenodd" clip-rule="evenodd" d="M59.0595 30.5096C60.0006 30.4569 60.8981 30.6501 61.8218 30.9749C61.7913 31.062 61.763 31.1476 61.7352 31.2318L61.7352 31.2318C61.6677 31.4359 61.6032 31.6313 61.5168 31.8178C61.251 32.3929 60.9809 32.9681 60.7108 33.5432C60.4406 34.1183 60.1705 34.6934 59.9047 35.2685L59.904 35.2701C59.7609 35.5803 59.6912 35.7314 59.574 35.795C59.4628 35.8555 59.3089 35.8372 59.0087 35.8016L58.9549 35.7953C58.6499 35.7602 58.4669 35.6285 58.4234 35.3299C58.4049 35.2042 58.3815 35.0779 58.3581 34.9514L58.3581 34.9514L58.3581 34.9513L58.358 34.9513L58.358 34.9513L58.358 34.9512L58.358 34.9512L58.358 34.9512L58.358 34.9511L58.358 34.9511L58.358 34.9511C58.2931 34.6007 58.2281 34.2494 58.2665 33.9075C58.3627 33.0629 58.5185 32.2237 58.6741 31.3856L58.6741 31.3856L58.6741 31.3855L58.6741 31.3854L58.6741 31.3853L58.6742 31.3852L58.6742 31.3851L58.6742 31.3851L58.6742 31.385L58.6742 31.385L58.6742 31.3849L58.6742 31.3849C58.7159 31.1604 58.7576 30.936 58.798 30.7115C58.8155 30.6325 58.9636 30.5184 59.0595 30.5096ZM53.1873 33.3552L53.1875 33.3555L53.1875 33.3555L53.1876 33.3556C53.7653 34.2214 54.3306 35.0685 54.9206 35.9008C55.1384 36.2168 55.4347 36.4978 55.914 36.3046C56.646 36.0237 56.8289 35.8305 56.6111 35.0579C56.3504 34.1187 56.5122 33.2156 56.6746 32.3093L56.6746 32.3093C56.6913 32.2158 56.7081 32.1223 56.7244 32.0287C56.7854 31.695 56.7767 31.3263 56.6982 30.9926C56.6634 30.8346 56.3497 30.5975 56.2277 30.6238C54.8945 30.9575 53.7268 31.616 52.6114 32.494C52.8056 32.7832 52.9971 33.0702 53.1873 33.3552ZM49.7645 40.0505C50.3749 40.4996 50.9872 40.95 51.6104 41.4059C51.4012 42.4157 50.861 42.9864 49.8066 43.1005C48.3514 43.2498 47.1227 42.6527 46.016 41.7572C45.955 41.7045 45.9289 41.5113 45.9725 41.4235C46.0364 41.2801 46.1001 41.1364 46.1638 40.9926L46.1644 40.9912L46.1652 40.9894L46.1655 40.9889L46.1662 40.9873L46.1662 40.9872L46.1662 40.9872L46.1662 40.9872L46.1662 40.9871L46.1662 40.9871L46.1663 40.9871L46.1663 40.987L46.1663 40.987L46.1663 40.987L46.1663 40.9869L46.1664 40.9869L46.1664 40.9869L46.1664 40.9868L46.1664 40.9868C46.449 40.349 46.7322 39.7098 47.0443 39.088C47.1281 38.9131 47.2653 38.7671 47.3967 38.6275L47.3968 38.6274C47.4566 38.5638 47.5153 38.5014 47.5671 38.4382C48.3065 38.9779 49.033 39.5124 49.7621 40.0488L49.7636 40.0499L49.7639 40.0501L49.7645 40.0505ZM50.1541 45.4169C48.5072 45.0043 46.9125 44.6004 45.1959 44.1614C45.1591 44.3652 45.118 44.5755 45.076 44.7904L45.076 44.7905C44.9986 45.1867 44.9182 45.5985 44.856 46.014C44.7964 46.4075 44.757 46.8044 44.7168 47.2089V47.2089C44.6925 47.4543 44.6678 47.7025 44.6382 47.9544C46.015 48.6481 47.4267 48.8412 48.8209 48.0335C49.8143 47.4715 50.2064 46.5408 50.1541 45.4169ZM44.6992 50.0716C44.4377 51.4589 44.6469 52.7671 45.1348 54.0403C45.1784 54.1456 45.2917 54.2598 45.3963 54.2949C47.4527 54.9885 49.7706 53.6013 50.0931 51.7311C50.1366 51.4764 50.1541 51.2043 50.1366 50.9496C50.0321 49.8345 49.8229 49.6765 48.7424 49.8345L48.4311 49.8801C47.6895 49.9889 46.9471 50.0978 46.1979 50.1594C45.8689 50.1835 45.5316 50.1497 45.1833 50.1147C45.0243 50.0988 44.863 50.0826 44.6992 50.0716ZM50.555 58.3061C51.2521 56.8134 51.0342 55.7422 49.8578 54.8115C48.6379 55.7422 47.2262 56.0847 45.71 56.1373C45.6055 56.1373 45.4312 56.2866 45.405 56.4007C45.1698 57.5158 45.5009 58.508 46.1196 59.4211C46.1691 59.4932 46.2638 59.5303 46.3708 59.5722C46.4332 59.5966 46.4998 59.6226 46.564 59.6582C46.5338 59.6785 46.5044 59.6987 46.4752 59.7188L46.4752 59.7188C46.4033 59.7683 46.3334 59.8164 46.259 59.8601C44.6731 60.8172 43.3921 62.0728 42.634 63.7849C41.6406 66.0414 41.2834 68.3682 42.1809 70.7652C42.3424 71.1961 42.491 71.6348 42.6394 72.0727L42.6394 72.0729L42.6395 72.073L42.6395 72.0732L42.6396 72.0733L42.6396 72.0734L42.6396 72.0736L42.6397 72.0737L42.6397 72.0738L42.6398 72.074L42.6398 72.0741L42.6399 72.0742L42.6399 72.0744L42.64 72.0745L42.64 72.0747L42.6401 72.0748L42.6401 72.0749L42.6402 72.0751C42.7636 72.4396 42.8869 72.8036 43.0174 73.1622C43.4531 74.3739 43.488 75.6206 43.1394 76.8323C42.1112 80.3707 43.0784 83.6194 44.4465 86.8242C44.5666 87.0921 44.7626 87.3344 44.9515 87.568L44.9606 87.5793C45.222 87.9042 45.5619 88.0095 45.9714 87.8691C46.381 87.7198 46.6773 87.4476 46.6598 87.0174C46.6424 86.4642 46.5727 85.9111 46.442 85.3755C46.3418 84.9496 46.2198 84.5282 46.0978 84.1067C45.9758 83.6853 45.8538 83.2638 45.7536 82.838C45.4748 81.6351 45.832 80.6429 46.808 79.8966C46.8496 79.8659 46.8903 79.8342 46.9308 79.8028L46.9309 79.8027L46.931 79.8027L46.9311 79.8026L46.9312 79.8025L46.9312 79.8025L46.9313 79.8024L46.9313 79.8024L46.9314 79.8023L46.9316 79.8022C47.0178 79.7352 47.1026 79.6693 47.1914 79.6156C48.664 78.764 49.5703 77.4294 50.3197 75.9455C50.5289 75.5238 50.7998 75.131 51.0702 74.7388L51.0702 74.7387C51.1939 74.5594 51.3175 74.3801 51.4351 74.1982L51.5396 74.2509C51.5919 74.4968 51.6453 74.7426 51.6986 74.9884L51.6987 74.9886C51.8588 75.7261 52.0189 76.4636 52.1496 77.2011C52.7334 80.4059 54.6156 82.8204 56.7941 85.0682C57.009 85.2933 57.2917 85.4587 57.5586 85.6148L57.5697 85.6213C57.9356 85.8408 58.3103 85.8408 58.6589 85.5511C59.0162 85.2525 59.1469 84.875 58.99 84.4535C58.8332 84.0497 58.6328 83.6545 58.3888 83.2946C58.1357 82.9263 57.8625 82.5732 57.5895 82.2204C57.3548 81.9171 57.1202 81.614 56.8987 81.3014C55.8617 79.8439 55.8182 78.8166 56.8377 77.3591C57.6481 76.1914 58.2058 74.9182 58.7025 73.5397C58.8411 73.6047 58.9774 73.6649 59.1108 73.7238L59.111 73.7239L59.1111 73.7239L59.1112 73.724L59.1113 73.724L59.1115 73.7241C59.3384 73.8243 59.5572 73.9209 59.7656 74.0314C61.9092 75.208 63.225 77.0606 64.0092 79.3347C64.3278 80.2417 64.6022 81.1653 64.8764 82.0879L64.8765 82.0881L64.8767 82.0887C64.9475 82.3269 65.0183 82.5651 65.0898 82.8029C65.3425 83.6458 65.752 84.3921 66.3097 85.0594C66.5225 85.3123 66.735 85.5653 66.9474 85.8182L66.9474 85.8182L66.9475 85.8182L66.9475 85.8182C67.9443 87.0048 68.9393 88.1892 69.9521 89.3617C70.2397 89.6953 70.5882 90.0114 70.9629 90.2485C71.6426 90.6787 72.3049 90.547 72.9323 89.9412C73.3854 89.5022 73.4638 88.9578 73.0543 88.2642C72.8193 87.8647 72.5163 87.5026 72.2183 87.1464L72.2182 87.1463L72.2182 87.1463L72.2181 87.1462L72.2177 87.1457C72.1622 87.0794 72.1069 87.0133 72.0522 86.9471C71.8779 86.7364 71.6775 86.5345 71.4683 86.3589C69.6994 84.8399 69.2637 82.8292 69.3422 80.6254C69.3548 80.2553 69.3997 79.8853 69.4433 79.5254L69.4433 79.5253C69.4598 79.3899 69.476 79.2559 69.4903 79.124C69.7629 79.0715 70.0323 79.019 70.2958 78.9677L70.2974 78.9674C70.7829 78.8728 71.2485 78.7821 71.6775 78.7025C71.84 79.0632 71.992 79.4319 72.1443 79.8012C72.474 80.6004 72.8049 81.4029 73.246 82.1356C73.8947 83.2156 74.6633 84.2208 75.4317 85.2258L75.4321 85.2263L75.4322 85.2265L75.4322 85.2265C75.6132 85.4632 75.7941 85.6998 75.9734 85.9374C76.2784 86.3413 76.688 86.6662 77.2457 86.5345C77.5419 86.4642 77.7685 85.6564 77.6204 85.0857C77.4809 84.5501 77.3154 84.0058 77.0453 83.5316C75.8427 81.398 75.3809 79.0537 75.0585 76.6743C74.8929 75.4626 74.1784 74.9182 72.9759 75.1553C70.7277 75.6031 68.4708 75.8226 66.179 75.6206C66.0222 75.6031 65.8654 75.568 65.7086 75.5329L65.7085 75.5328C64.0877 75.1465 63.4428 73.6363 64.2794 72.17C64.3055 72.1173 64.3317 72.0647 64.3752 72.0208C65.1543 71.2293 65.5765 70.2461 66.0005 69.2589C66.1504 68.91 66.3004 68.5606 66.4666 68.2189C66.7977 67.5516 67.4251 66.9897 68.0264 66.498C68.767 65.9009 69.6733 65.6024 70.6057 65.4005C70.7364 65.3741 70.9281 65.2512 70.9542 65.1458C70.9804 65.0229 70.8758 64.7946 70.7712 64.742C70.7047 64.7103 70.6378 64.6778 70.5705 64.6451C70.1709 64.4507 69.7586 64.2502 69.3334 64.1976C68.6363 64.1098 67.9131 64.1273 67.2072 64.1976C66.423 64.2766 65.7259 64.0308 65.0723 63.7147C64.3752 63.381 63.713 62.9244 63.0856 62.4679C61.3689 61.2123 59.6349 59.9919 57.6655 59.1577C55.5567 58.2534 53.3696 57.9548 51.1039 58.2885C50.9384 58.2709 50.7554 58.2797 50.555 58.3061ZM60.1134 56.616C59.4162 57.055 58.6581 57.2482 57.839 57.2482C57.0548 57.2219 56.3054 57.0638 55.6693 56.5721C54.9634 56.0365 54.6933 55.2463 55.1029 54.4824C55.3643 54.0017 55.7286 53.5803 56.093 53.1588L56.0931 53.1587L56.0932 53.1586L56.0933 53.1584L56.0934 53.1583L56.0936 53.1581L56.0937 53.158L56.0938 53.1578L56.0939 53.1577L56.094 53.1576L56.0942 53.1574L56.0943 53.1573L56.0944 53.1571L56.0944 53.1571L56.0944 53.1571L56.0945 53.1571L56.0945 53.1571C56.2154 53.0172 56.3364 52.8773 56.4535 52.7352C56.5145 52.6649 56.6626 52.6386 56.7672 52.6474C58.6581 52.8318 60.1221 54.14 60.4619 55.7907C60.549 56.1946 60.4358 56.4141 60.1134 56.616ZM50.6504 34.032C51.6437 34.7871 53.038 36.508 53.9878 38.1323L53.8898 38.2573L53.8898 38.2573L53.8898 38.2573L53.8896 38.2575L53.8895 38.2576L53.8894 38.2578C53.6648 38.544 53.4526 38.8144 53.2471 39.0982C53.0641 39.3528 52.8463 39.4143 52.5326 39.3177C50.9205 38.7996 49.8138 37.6407 48.6462 36.3939C49.3252 35.5956 49.9869 34.8149 50.6485 34.0342L50.6489 34.0337L50.6504 34.032ZM64.2442 39.4238C64.9622 38.8006 65.8369 38.6917 66.7167 38.5821L66.7167 38.5821L66.7168 38.5821L66.7168 38.5821L66.7168 38.5821L66.7169 38.5821L66.7169 38.5821L66.717 38.5821L66.717 38.5821L66.7171 38.5821L66.7171 38.5821L66.7172 38.5821C66.9156 38.5573 67.1143 38.5326 67.3115 38.5019C67.7646 38.4317 68.2178 38.2999 68.6535 38.1595C68.7493 38.1243 68.8887 37.9487 68.8713 37.8609C68.7406 36.9917 68.4705 36.1751 67.7472 35.6132C67.6252 35.5166 67.4248 35.4552 67.2854 35.4727C66.2223 35.6395 65.2376 36.0083 64.3575 36.6317C64.2529 36.7107 64.1484 36.7897 64.0525 36.8776C63.1463 37.7205 63.2073 38.6775 64.2442 39.4238ZM64.5845 53.8298C63.7044 52.2494 59.8702 50.7392 58.8769 51.5909C58.8769 51.6172 58.8769 51.6611 58.8943 51.6699C60.0794 52.706 60.9333 54.0142 61.7612 55.34C61.9616 55.6649 62.162 55.6825 62.4757 55.5771C63.2077 55.3313 64.0442 54.6464 64.5845 53.8298ZM70.4393 70.8709C70.3086 71.547 70.0385 71.7489 69.3414 71.7665C69.2189 71.7435 69.0964 71.7252 68.9745 71.7071C68.7235 71.6696 68.4752 71.6326 68.2347 71.5557C67.4504 71.3187 67.1106 70.7655 67.2587 69.949C67.311 69.6504 67.4243 69.3607 67.555 69.0885C68.0256 68.1315 68.8011 67.4554 69.6899 66.911C69.9949 66.7266 70.3609 66.6125 70.7094 66.551C70.8705 66.5198 71.0493 66.5641 71.2268 66.608C71.299 66.6259 71.3709 66.6437 71.4414 66.6564C71.4266 66.7208 71.4154 66.7888 71.404 66.857C71.3752 67.0306 71.346 67.2064 71.2584 67.3325C70.753 68.0612 70.6049 68.8778 70.5613 69.7382C70.5439 70.1158 70.509 70.5021 70.4393 70.8709ZM68.8272 69.589C68.4438 69.589 68.104 69.9314 68.1127 70.3177C68.1149 70.4173 68.1376 70.5119 68.1765 70.5975C68.1381 70.5124 68.1158 70.4186 68.1136 70.3198C68.1136 69.9335 68.4448 69.5911 68.8282 69.5911C69.1113 69.5911 69.3581 69.7604 69.4701 70.0066C69.3586 69.7593 69.1112 69.589 68.8272 69.589ZM64.5058 41.861C64.8453 41.8893 65.1826 41.9173 65.5183 41.9452L65.5184 41.9452L65.5186 41.9452L65.5186 41.9452L65.5187 41.9452L65.5188 41.9452C66.8458 42.0554 68.1462 42.1633 69.4466 42.2824C69.83 42.3175 69.952 42.1683 69.9869 41.8083C70.0566 41.0356 69.7951 40.4298 69.1503 40.0083C68.0611 39.3059 66.1179 39.4288 65.1245 40.2717C64.6191 40.6932 64.4012 41.2288 64.5058 41.861ZM63.7218 31.7549C64.7675 32.3256 65.7609 32.9051 66.458 33.8973C64.8546 34.8455 63.3036 35.7674 61.7525 36.6981C61.4649 36.2416 61.4301 35.9343 61.6392 35.2933C62.0368 34.0588 62.7895 33.0298 63.5525 31.9867L63.5529 31.9862L63.5535 31.9853C63.6096 31.9086 63.6658 31.8318 63.7218 31.7549ZM61.3517 49.9945C62.4386 50.3668 63.312 51.0397 64.2022 51.7256L64.2023 51.7256C64.7395 52.1395 65.2828 52.5581 65.883 52.9183C65.9646 52.7888 66.0458 52.6604 66.1266 52.5328L66.1276 52.5311L66.1283 52.5301L66.1284 52.5299C66.4524 52.0179 66.7686 51.5182 67.0681 51.013C67.1116 50.9427 67.0855 50.7408 67.0158 50.6881C65.883 49.7925 64.663 49.0725 63.1729 49.0023C62.4323 48.9847 61.77 49.1779 61.3517 49.9945ZM69.6389 44.1647C69.6215 44.884 69.6036 45.6207 69.1422 46.226C68.9611 46.166 68.782 46.1053 68.604 46.045C68.1314 45.8849 67.6675 45.7278 67.199 45.5938C66.3712 45.3743 65.5434 45.1724 64.7068 44.988C64.3931 44.9177 64.3234 44.7597 64.367 44.4612C64.4803 43.6358 65.0467 43.1266 66.0052 43.0915C67.2339 43.0388 68.3667 43.4514 69.4734 43.9431C69.5518 43.9783 69.6389 44.0924 69.6389 44.1626L69.6389 44.1647ZM66.5611 70.8882C66.375 71.1173 66.2086 71.3188 66.0534 71.5066L66.0529 71.5072C65.8812 71.715 65.7232 71.9062 65.5677 72.0999C65.5143 72.1665 65.4586 72.2316 65.4031 72.2966L65.403 72.2967C65.2685 72.4542 65.1348 72.6107 65.0361 72.7847C64.7137 73.3466 64.8706 73.9613 65.4631 74.2159C65.9337 74.4178 66.4565 74.5495 66.9619 74.6022C68.3126 74.7515 69.6458 74.6198 70.9529 74.2247C70.8657 73.6101 70.5869 73.3291 69.9769 73.2676C69.6724 73.2402 69.3646 73.2299 69.0575 73.2197L69.0574 73.2196L69.0572 73.2196L69.057 73.2196C68.8722 73.2134 68.6876 73.2073 68.5043 73.1974C67.3192 73.1271 67.1275 72.9428 66.8922 71.7838C66.8513 71.5895 66.7712 71.3991 66.6861 71.1968C66.6443 71.0974 66.6013 70.9952 66.5611 70.8882ZM67.6601 49.4215C66.2659 48.6927 64.8455 48.0606 63.2683 47.7445C63.4948 46.6206 64.2355 46.1201 65.4032 46.2694C66.5796 46.4099 67.6252 46.9016 68.5838 47.5777C68.6796 47.6479 68.8016 47.8059 68.7755 47.8762C68.5838 48.3679 68.3833 48.8684 68.1306 49.3337C68.0784 49.4215 67.7734 49.483 67.6601 49.4215ZM71.486 69.0281C71.486 69.9412 71.6341 70.0905 72.3313 69.9588C72.6188 69.9061 72.9238 69.7832 73.1591 69.6076C74.0653 68.9315 74.318 67.2984 73.6906 66.394C73.5425 66.1833 73.4118 66.0955 73.1678 66.2711C72.157 67.0174 71.5296 67.9569 71.486 69.0281Z" fill="#20113D"/>
<defs>
<filter id="filter0_d" x="4" y="8" width="112" height="112" filterUnits="userSpaceOnUse" color-interpolation-filters="sRGB">
<feFlood flood-opacity="0" result="BackgroundImageFix"/>
<feColorMatrix in="SourceAlpha" type="matrix" values="0 0 0 0 0 0 0 0 0 0 0 0 0 0 0 0 0 0 127 0"/>
<feOffset dy="4"/>
<feGaussianBlur stdDeviation="2"/>
<feColorMatrix type="matrix" values="0 0 0 0 0 0 0 0 0 0 0 0 0 0 0 0 0 0 0.25 0"/>
<feBlend mode="normal" in2="BackgroundImageFix" result="effect1_dropShadow"/>
<feBlend mode="normal" in="SourceGraphic" in2="effect1_dropShadow" result="shape"/>
</filter>
</defs>
</svg>
