<svg width="120" height="120" viewBox="0 0 120 120" fill="none" xmlns="http://www.w3.org/2000/svg">
<circle cx="60" cy="60" r="58.5" stroke="white" stroke-width="3"/>
<g filter="url(#filter0_d)">
<circle cx="60" cy="60" r="52" fill="white"/>
</g>
<path fill-rule="evenodd" clip-rule="evenodd" d="M73.1978 54.9514C73.8218 56.2855 74.4457 57.6197 75.0924 59.0129C74.929 59.1468 74.7636 59.2851 74.5956 59.4254L74.5948 59.4261L74.5947 59.4261C74.2148 59.7436 73.8222 60.0716 73.4133 60.3825C72.959 60.7261 72.5085 61.0745 72.0582 61.4227L72.0576 61.4233L72.0575 61.4233C70.945 62.2838 69.8339 63.1431 68.671 63.9246C64.4847 66.7465 59.8672 67.8918 54.898 67.4431C53.6841 67.3368 52.4021 66.9 51.8916 66.534C52.1864 64.41 52.4698 62.3449 52.7533 60.2799L52.7538 60.2763C52.7198 60.2645 52.6829 60.2556 52.646 60.2468C52.6091 60.2379 52.5723 60.2291 52.5382 60.2173C52.4278 60.4505 52.3182 60.6838 52.2088 60.9169L52.2085 60.9176C51.936 61.4981 51.6643 62.0768 51.381 62.6495C50.6453 64.1624 50.152 65.769 49.6575 67.3792C49.5192 67.8298 49.3807 68.2808 49.2368 68.73C48.3292 71.5283 46.7068 73.6772 43.95 74.728C43.8138 74.787 43.7004 75.0231 43.6436 75.2002C43.5325 75.5673 43.4337 75.9387 43.335 76.3098L43.3349 76.3101C43.2019 76.8102 43.069 77.3098 42.9062 77.7978C42.2822 79.6869 41.1137 81.1509 39.5367 82.2726C38.8333 82.7685 38.1299 83.2762 37.4605 83.8193C36.8819 84.2798 36.9046 84.4805 37.4719 84.941C37.5828 85.0311 37.6944 85.1199 37.8057 85.2084L37.8058 85.2085L37.8058 85.2085C38.1612 85.4912 38.5137 85.7716 38.8333 86.0862C39.3552 86.6057 39.5934 87.2669 39.4005 88.0226C39.3552 88.1997 39.0942 88.4358 38.9354 88.4358C35.2142 88.4594 31.4816 88.4594 27.7604 88.4476C27.6243 88.4476 27.4314 88.4004 27.352 88.3059C27.238 88.1616 27.1214 88.0178 27.0044 87.8736L27.0042 87.8733L27.0042 87.8733C26.5854 87.3571 26.1623 86.8354 25.8431 86.2633C25.6389 85.8973 25.6162 85.2834 25.7523 84.8701C27.0684 80.7023 28.7588 76.747 31.9468 73.7126C32.0829 73.5827 32.1623 73.2993 32.1737 73.0986C32.2531 70.0997 32.5934 67.1243 33.3309 64.2316C33.9662 61.7285 34.6469 59.2255 35.8495 56.9231C38.0618 52.7199 40.9208 49.2132 45.3114 47.3241C49.0893 45.7065 52.7765 45.9545 56.3729 47.8672C56.8666 48.1321 57.3131 48.4954 57.7481 48.8492C57.9528 49.0157 58.155 49.1801 58.3583 49.3313C57.9499 48.4103 57.2351 47.6547 56.4637 46.9581C57.1901 46.6705 57.9193 46.3921 58.6472 46.1143L58.6474 46.1142C61.8639 44.8863 65.0552 43.6681 67.8769 41.704C68.0011 42.1539 68.1232 42.6083 68.2459 43.0653L68.2459 43.0654C68.4034 43.6518 68.562 44.2423 68.7278 44.8328C68.7732 44.9745 68.8639 45.1044 68.9774 45.2225C68.7505 43.7584 68.7505 42.2943 69.2837 40.9483C69.7829 39.6732 70.3842 38.3862 71.1556 37.2764C73.0503 34.5844 75.3307 32.2466 77.872 30.204L77.872 30.204L77.872 30.204C77.9741 30.1214 78.0762 30.0387 78.1896 29.9561C78.3718 29.8351 78.5524 29.7061 78.7333 29.5769C79.6114 28.9497 80.4984 28.3161 81.6272 28.5511C83.4878 28.9289 85.0421 29.9443 86.1086 31.6091C86.4149 32.0813 86.7666 32.4119 87.2544 32.589C88.5251 33.0495 89.4781 33.8406 90.0907 35.1275C90.3128 35.5977 90.6331 36.0142 90.9539 36.4313C91.1084 36.6321 91.263 36.833 91.4068 37.0402C91.7017 37.4653 91.7585 37.8195 91.4294 38.3154C91.1572 38.7286 91.021 39.2836 90.9416 39.7913C90.8395 40.3934 91.0664 40.783 91.679 41.1136C93.2787 41.9637 94.209 43.8647 93.3241 45.7892C93.1766 46.108 93.0405 46.4268 92.9157 46.7574C92.3257 48.3395 91.2025 48.8944 89.6596 48.3395C89.6341 48.3306 89.6078 48.3218 89.5816 48.3129L89.5815 48.3129C89.5028 48.2863 89.4242 48.2598 89.3646 48.2332C89.081 48.6465 88.7974 49.0479 88.491 49.4729C88.4475 49.4176 88.4102 49.3772 88.3817 49.3464C88.3433 49.305 88.3209 49.2807 88.3209 49.2604C88.4116 48.245 87.8217 47.6429 87.1637 47.0289C84.0891 44.148 80.3225 44.6675 77.7472 46.3323C78.0367 46.2712 78.3236 46.2045 78.6096 46.138L78.6096 46.138C79.1529 46.0117 79.6931 45.8861 80.2431 45.801C83.5105 45.3287 86.3468 46.8518 87.8557 49.898C88.8995 51.9996 89.6369 54.1957 89.4554 56.6279L89.4534 56.6564V56.6565C89.4199 57.1328 89.3835 57.6517 89.1944 58.0684C88.5364 59.5325 88.7406 61.0083 89.1037 62.4606L89.1706 62.7312C89.5112 64.111 89.861 65.5276 90.5105 66.7465C93.0178 71.4338 93.222 76.499 93.0405 81.635C92.961 83.8429 92.2803 85.8029 90.5332 87.2315C89.5575 88.0344 88.5137 88.5893 87.209 88.483C86.6077 88.4358 85.9951 88.424 85.3938 88.483C84.2593 88.6129 83.4765 88.0226 82.8071 87.1961C82.081 86.3106 81.752 85.2834 81.9562 84.1263C82.013 83.8193 82.2285 83.4415 82.4781 83.2998C82.7916 83.1265 83.0205 83.367 83.2525 83.6107C83.2892 83.6492 83.3259 83.6878 83.363 83.7248C83.7127 84.077 84.1745 84.3358 84.6147 84.5825L84.6147 84.5825L84.6223 84.5868C85.0081 84.7993 85.2123 84.6222 85.2577 84.1735C85.3031 83.6422 85.1442 83.1935 84.7585 82.8511C82.5916 80.9266 81.2301 78.4117 80.0049 75.8024C79.0632 73.7834 78.4619 71.67 78.2464 69.4267C78.0875 67.7383 78.3712 66.0971 78.6775 64.4559C78.825 63.7121 78.9725 62.9565 79.0178 62.189C79.1199 60.6659 78.6094 59.379 77.3501 58.5643C75.7958 57.5607 74.4117 56.3564 73.2999 54.8451C73.3112 54.8805 73.2545 54.9159 73.1978 54.9514ZM76.5212 60.3137C77.1793 60.8686 77.4175 61.5062 77.2814 62.2973C77.1975 62.8087 77.1051 63.3187 77.0128 63.8287L77.0126 63.8294L77.0126 63.8295C76.8428 64.7675 76.6728 65.7058 76.5553 66.654C76.1695 69.8537 76.8843 72.8763 78.0755 75.7926C78.2911 76.3239 78.3138 76.749 78.0869 77.2803C77.0545 79.7125 75.9313 82.0857 74.4791 84.2936C72.5958 87.1509 69.9637 88.4732 66.6737 88.4732C66.4792 88.4732 66.2858 88.4764 66.0929 88.4796H66.0928C65.6439 88.4871 65.1972 88.4945 64.745 88.4614C64.5181 88.4496 64.2344 88.2961 64.1096 88.1072C63.0546 86.6196 63.2361 83.538 64.45 82.1802C64.5861 82.0267 64.8925 81.885 65.0626 81.944C65.192 81.9921 65.2837 82.1968 65.3685 82.3859C65.3878 82.429 65.4067 82.4713 65.4257 82.5107C65.4725 82.6082 65.5065 82.7155 65.5404 82.8223C65.5968 83.0002 65.6526 83.1764 65.766 83.3018C65.9703 83.5498 66.322 83.904 66.5489 83.8567C66.7871 83.8095 67.0254 83.3727 67.1275 83.0657C67.2296 82.7705 67.1955 82.4045 67.1388 82.0975C67.0566 81.6652 66.9534 81.2361 66.8505 80.8078L66.8505 80.8077C66.6695 80.0545 66.4892 79.3038 66.4241 78.5436C66.1177 75.1314 66.4127 71.7783 67.8309 68.6258C68.1599 67.9056 68.5343 67.1735 69.0221 66.5596C69.5326 65.8984 70.168 65.3199 70.8146 64.8004C71.4782 64.2577 72.162 63.7446 72.8467 63.2307L72.8468 63.2307L72.8471 63.2304C73.3095 62.8834 73.7723 62.5361 74.2295 62.1792C74.7396 61.7751 75.2446 61.3604 75.7581 60.9387C76.0099 60.7319 76.2637 60.5235 76.5212 60.3137ZM52.1375 68.7059C51.8462 68.6162 51.5535 68.5261 51.2553 68.4348C51.1543 68.6627 51.0563 68.8939 50.958 69.1258C50.7915 69.5188 50.624 69.9142 50.4385 70.3003C49.3153 72.6617 47.8404 74.7161 45.56 76.0385C45.3785 76.1447 45.2537 76.4163 45.1857 76.6406C44.6411 78.5415 43.9604 80.3598 42.7011 81.8947C42.6103 82.0128 42.5309 82.2253 42.5649 82.3552C42.962 83.6658 43.3704 84.9763 43.8129 86.2633C43.8923 86.4876 44.1306 86.7001 44.3461 86.83C45.1516 87.3023 45.9571 87.7628 46.7853 88.1996C47.0576 88.3413 47.3753 88.4712 47.6702 88.4712C50.0693 88.4889 52.4619 88.4867 54.8577 88.4845C55.657 88.4837 56.4566 88.483 57.2569 88.483H57.9603C57.884 88.3202 57.8218 88.1614 57.763 88.0111C57.6468 87.7145 57.5436 87.451 57.3704 87.2551C56.9392 86.771 56.4514 86.3105 55.9295 85.9445C55.4394 85.6014 54.9074 85.3165 54.3773 85.0327C54.2324 84.9552 54.0878 84.8778 53.9441 84.7992C53.3769 84.4804 53.1273 84.0082 53.1727 83.347C53.1802 83.1895 53.1979 83.0321 53.2155 82.8747C53.2243 82.796 53.2332 82.7173 53.2407 82.6385C53.2754 82.2811 53.3186 81.9225 53.3618 81.5635C53.46 80.7486 53.5584 79.9315 53.5584 79.1201C53.5584 77.4317 52.8323 75.9794 51.7999 74.7043C53.5924 73.3111 53.9441 71.3393 54.1143 69.3085C53.4324 69.1046 52.7885 68.9063 52.1375 68.7059Z" fill="#20113D"/>
<defs>
<filter id="filter0_d" x="4" y="8" width="112" height="112" filterUnits="userSpaceOnUse" color-interpolation-filters="sRGB">
<feFlood flood-opacity="0" result="BackgroundImageFix"/>
<feColorMatrix in="SourceAlpha" type="matrix" values="0 0 0 0 0 0 0 0 0 0 0 0 0 0 0 0 0 0 127 0"/>
<feOffset dy="4"/>
<feGaussianBlur stdDeviation="2"/>
<feColorMatrix type="matrix" values="0 0 0 0 0 0 0 0 0 0 0 0 0 0 0 0 0 0 0.25 0"/>
<feBlend mode="normal" in2="BackgroundImageFix" result="effect1_dropShadow"/>
<feBlend mode="normal" in="SourceGraphic" in2="effect1_dropShadow" result="shape"/>
</filter>
</defs>
</svg>
